<?xml version="1.0" encoding="UTF-8"?>
<svg xmlns="http://www.w3.org/2000/svg" xmlns:xlink="http://www.w3.org/1999/xlink" version="1.1" viewBox="0 0 108 27.7">
  <defs>
    <style>
      .cls-1 {
        filter: url(#drop-shadow-1);
      }

      .cls-2 {
        fill: #ec2224;
      }

      .cls-3 {
        fill: url(#linear-gradient);
      }

      .cls-4 {
        fill-rule: evenodd;
      }

      .cls-5 {
        fill: #e42526;
      }

      .cls-6 {
        fill: url(#New_Gradient_Swatch_2);
      }
    </style>
    <filter id="drop-shadow-1" x=".4" y=".6" width="26.5" height="26.5" filterUnits="userSpaceOnUse">
      <feOffset dx="-1" dy="-1"/>
      <feGaussianBlur result="blur" stdDeviation="0"/>
      <feFlood flood-color="#000" flood-opacity=".6"/>
      <feComposite in2="blur" operator="in"/>
      <feComposite in="SourceGraphic"/>
    </filter>
    <linearGradient id="New_Gradient_Swatch_2" data-name="New Gradient Swatch 2" x1="13.2" y1="12.8" x2="3.9" y2="-6.1" gradientUnits="userSpaceOnUse">
      <stop offset="0" stop-color="#fff" stop-opacity="0"/>
      <stop offset="1" stop-color="#fff"/>
    </linearGradient>
    <linearGradient id="linear-gradient" x1="13.7" y1="31.9" x2="13.7" y2="-10.1" gradientUnits="userSpaceOnUse">
      <stop offset="0" stop-color="#cbcbca"/>
      <stop offset="1" stop-color="#fff"/>
    </linearGradient>
  </defs>
  <!-- Generator: Adobe Illustrator 28.7.1, SVG Export Plug-In . SVG Version: 1.2.0 Build 142)  -->
  <g>
    <g id="Layer_1">
      <g>
        <g class="cls-1">
          <path class="cls-2" d="M13.7,26.1c-6.8,0-12.2-5.5-12.2-12.2S7,1.6,13.7,1.6s12.2,5.5,12.2,12.2-5.5,12.2-12.2,12.2Z"/>
          <path class="cls-6" d="M4.6,19.2c0-6.6,5.4-12,12-12s6.6,1.5,8.7,3.8c-1.3-5.2-6-9.1-11.6-9.1S1.8,7.3,1.8,13.9s1.2,6,3.2,8.2c-.2-.9-.3-1.9-.3-2.8Z"/>
          <path class="cls-3" d="M13.7.6C6.3.6.4,6.5.4,13.9s5.9,13.3,13.3,13.3,13.3-5.9,13.3-13.3S21,.6,13.7.6ZM13.7,2.1c5.4,0,9.8,3.6,11.3,8.5.6,1.9.5,5.4-1.9,8.1-1.3,1.4-3,2.3-4.3,2.9-3.6,1.4-7.3.2-8.4-2.5-1.1-2.7.9-6.1,4.4-7.6,1.9-.8,3.8-.8,5.4-.3l.6-3.2h-.4c-.9-.3-2.6-.6-4.7-.6-8.6,0-12.8,5.9-12.8,11.4s0,.1,0,.2c-.7-1.5-1.2-3.3-1.2-5.1C1.9,7.3,7.1,2.1,13.7,2.1Z"/>
        </g>
        <g>
          <path class="cls-5" d="M38.6,19.5c-.6,0-1.6-.1-1.6-1.6s.2-1.6.4-2.2c.6-1.7,1.7-2.1,2.5-2.1h3.4l.5-2.7h-4.2c-1,0-3,.2-4.6,1.7-1.4,1.3-2.2,3.6-2.2,5.3s.8,4.5,4.6,4.5h4.2l.6-2.9h-3.4Z"/>
          <polygon points="41 5.3 40.3 8.8 46.1 8.8 43.5 22.4 48.3 22.4 51 8.8 56.6 8.8 57.3 5.3 41 5.3"/>
          <path class="cls-4" d="M106.4,11.5c-.7-.4-1.3-.5-2.7-.5h-16.8l-.6,2.9c-.1-.4-.3-.8-.5-1.2-.3-.4-.6-.7-1.1-1-.4-.2-.8-.4-1.3-.5-.4,0-.9-.2-1.4-.2h-6.3l-1.9,9.5-1.5-9.5h-5.8l-5.6,10.1v-2.1c0-.7-.3-1.1-.6-1.4-.4-.4-.9-.5-1.3-.6h0c.7-.1,1.3-.3,1.8-.7.9-.6,1.5-1.5,1.5-2.6s-.6-1.8-1.3-2.2c-.5-.3-1.2-.5-1.8-.5h-7.4l-.5,2.7h5.1c.3,0,1.4,0,1.4,1s0,.7-.6,1c-.3.2-.8.3-1.5.3h-4.9l-1.3,6.5h4.1l.8-4h1c.3,0,.7,0,.9.3.2.2.2.5.2.9v2.9c-.1,0,8,0,8,0l1-2.2h3.7l.2,2.2h10.1c1,0,3-.2,4.6-1.7.3-.3.6-.6.8-.9l-.5,2.6h9l.6-2.9h-4.8l.3-1.5h4l.5-2.6h-4l.3-1.7h11.1c.7,0,1.5.1,1.5.9s-.7,1.3-1.5,1.3h-5.6l-1.3,6.5h4.3l.8-4h1c.3,0,.7,0,.9.3.1.2.2.5.2.9v2.9c-.1,0,4.3,0,4.3,0v-3.3c0-.7-.3-1.2-.6-1.5-.4-.3-.8-.5-1.2-.6h0c.8-.2,1.5-.5,2.1-.9.7-.6,1.2-1.5,1.2-2.4s-.5-1.7-1.2-2.1ZM67.1,17.3l1.7-3.7h0l.3,3.7h-2.1ZM81.6,17.6c-.6,1.8-1.7,1.9-2.4,1.9h-.8l1.1-5.8h.8c.6,0,1.6.1,1.6,1.6s-.2,1.7-.4,2.3Z"/>
        </g>
      </g>
    </g>
  </g>
</svg>