<?xml version="1.0" encoding="UTF-8"?>
<svg xmlns="http://www.w3.org/2000/svg" xmlns:xlink="http://www.w3.org/1999/xlink" version="1.1" viewBox="0 0 108 27.7">
  <defs>
    <style>
      .cls-1 {
        fill: url(#linear-gradient-4);
      }

      .cls-2 {
        fill: url(#linear-gradient-3);
      }

      .cls-3 {
        fill: url(#linear-gradient-2);
      }

      .cls-4 {
        fill: url(#linear-gradient);
      }
    </style>
    <linearGradient id="linear-gradient" x1="3.2" y1="84.4" x2="14.6" y2="-8.3" gradientTransform="translate(0 29) scale(1 -1)" gradientUnits="userSpaceOnUse">
      <stop offset=".7" stop-color="#2bb673"/>
      <stop offset=".9" stop-color="#345baa"/>
    </linearGradient>
    <linearGradient id="linear-gradient-2" x1="28.5" y1="87.5" x2="40" y2="-5.1" gradientTransform="translate(0 29) scale(1 -1)" gradientUnits="userSpaceOnUse">
      <stop offset=".7" stop-color="#2bb673"/>
      <stop offset=".9" stop-color="#345baa"/>
    </linearGradient>
    <linearGradient id="linear-gradient-3" x1="20.9" y1="86.6" x2="32.4" y2="-6.1" gradientTransform="translate(0 29) scale(1 -1)" gradientUnits="userSpaceOnUse">
      <stop offset=".7" stop-color="#2bb673"/>
      <stop offset=".9" stop-color="#345baa"/>
    </linearGradient>
    <linearGradient id="linear-gradient-4" x1="36.4" y1="88.5" x2="47.9" y2="-4.2" gradientTransform="translate(0 29) scale(1 -1)" gradientUnits="userSpaceOnUse">
      <stop offset=".7" stop-color="#2bb673"/>
      <stop offset=".9" stop-color="#345baa"/>
    </linearGradient>
  </defs>
  <!-- Generator: Adobe Illustrator 28.7.1, SVG Export Plug-In . SVG Version: 1.2.0 Build 142)  -->
  <g>
    <g id="Layer_1">
      <g>
        <path class="cls-4" d="M13.7,2.4v5.8h3.4v11.5s-3.4,0-3.4,0v5.8h4.5c4.1,0,5.9-1.8,5.9-5.9v-11.2c0-4.1-1.8-6-5.9-6h-4.5ZM10,2.4H0v23h9.9v-5.8h-3.4v-11.5h3.4V2.4Z"/>
        <path class="cls-3" d="M26,2.4l14.3,23h8.7L34.7,2.4h-8.7Z"/>
        <path class="cls-2" d="M26.1,25.4h10.1l-5-8.2-5,8.2Z"/>
        <path class="cls-1" d="M49.1,2.4h-10.1l5,8.1,5-8.1Z"/>
        <path d="M53.9,9.3v-3.4h2v3.5h3.6v1.9h-3.6v8c0,.1,0,.2.1.2,0,0,.1.1.2.1h3.2v1.8h-2.2c-2.3,0-3.4-1.1-3.4-3.4v-8.7Z"/>
        <path d="M61.4,9.3h2v1.6c0,.1,0,.2.2.2s.2,0,.2-.2c.5-1.1,1.4-1.7,3-1.7h1.3v2.1h-1.7c-2,0-3,.9-3,3.2v6.9h-2v-12.1Z"/>
        <path d="M102.2,9.1c3.7,0,5.7,2.3,5.7,5.6v1.2h-9.6c.2,2.4,1.4,4,3.9,4s3.2-1,3.5-2.4h2.1c-.3,1.8-1.9,4.2-5.7,4.2s-6-2.4-6-6.4,2.3-6.3,6-6.3ZM105.9,14.2c0-2-1.3-3.3-3.7-3.3s-3.6,1.1-3.9,3.3h7.6,0Z"/>
        <path d="M78.6,9.3v1.5c0,.1,0,.2-.1.2s-.2,0-.2-.2c-1-1.2-2.3-1.7-4-1.7-2.9,0-5.8,2-5.8,6.3s2.9,6.3,5.8,6.3,3-.5,4-1.7c0,0,.1-.2.2-.2s.2,0,.2.2v1.3h2v-12.1h-2.1ZM74.7,20c-2.4,0-4.1-1.7-4.1-4.6s1.7-4.5,4.1-4.5,4.1,1.6,4.1,4.5-1.7,4.5-4.1,4.5Z"/>
        <path d="M92.6,5.9v4.9c0,.1,0,.2-.1.2s-.2,0-.2-.2c-1-1.2-2.3-1.7-4-1.7-2.9,0-5.8,2-5.8,6.3s2.9,6.3,5.8,6.3,3-.5,4-1.7c0,0,.1-.2.2-.2s.2,0,.2.2v1.3h2V5.9h-2.1ZM88.6,20c-2.4,0-4.1-1.7-4.1-4.6s1.7-4.5,4.1-4.5,4.1,1.6,4.1,4.5-1.7,4.5-4.1,4.5Z"/>
      </g>
    </g>
  </g>
</svg>